<svg width="28" height="18" viewBox="0 0 28 18" fill="none" xmlns="http://www.w3.org/2000/svg">
<path d="M25.3138 1H5.75941C4.83473 1 4.07322 1.76151 4.07322 2.68619V3.77406H2.68619C1.76151 3.77406 1 4.53557 1 5.46025V6.60251V10.0021V15.6318C1 16.5565 1.76151 17.318 2.68619 17.318H22.2406C23.1653 17.318 23.9268 16.5565 23.9268 15.6318V14.5439H25.3138C26.2385 14.5439 27 13.7824 27 12.8577V2.68619C27 1.73431 26.2657 1 25.3138 1ZM1.87029 5.46025C1.87029 4.99791 2.25105 4.64435 2.68619 4.64435H4.50837H22.2134C22.6757 4.64435 23.0293 5.02511 23.0293 5.46025V6.60251H1.87029V5.46025ZM23.0565 14.136V15.659C23.0565 16.1213 22.6757 16.4749 22.2406 16.4749H2.68619C2.22385 16.4749 1.87029 16.0941 1.87029 15.659V10.0021H23.0565V14.136ZM23.0565 9.1318H1.87029V7.47281H23.0565V9.1318ZM26.1297 12.8849C26.1297 13.3473 25.749 13.7008 25.3138 13.7008H23.9268V10.0021V6.60251V5.46025C23.9268 4.53557 23.1653 3.77406 22.2406 3.77406H4.94351V2.68619C4.94351 2.22385 5.32427 1.87029 5.75941 1.87029H25.3138C25.7762 1.87029 26.1297 2.25105 26.1297 2.68619V12.8849Z" fill="#BDC0C2" stroke="#BDC0C2" stroke-width="0.3"/>
</svg>
