<svg width="100" height="90" viewBox="0 0 100 90" fill="none" xmlns="http://www.w3.org/2000/svg">
<path fill-rule="evenodd" clip-rule="evenodd" d="M4.16667 0C1.86548 0 0 1.86548 0 4.16667C0 6.46785 1.86548 8.33333 4.16667 8.33333H17.418L20.8831 25.6461C20.9016 25.7647 20.925 25.8816 20.9533 25.9967L27.9139 60.7736C28.486 63.6496 30.051 66.233 32.3353 68.0719C34.6092 69.9024 37.4515 70.879 40.3693 70.8333H80.7973C83.7151 70.879 86.5574 69.9024 88.8313 68.0719C91.1165 66.2323 92.6821 63.6475 93.2536 60.7701L99.9262 25.7805C100.159 24.5607 99.8353 23.3008 99.0437 22.344C98.2521 21.3872 97.0751 20.8333 95.8333 20.8333H28.4185L24.919 3.34893C24.5292 1.4016 22.8193 0 20.8333 0H4.16667ZM36.0868 59.1466L30.0864 29.1667H90.7969L85.0771 59.16C84.8844 60.1138 84.3639 60.9702 83.6058 61.5805C82.844 62.1937 81.8909 62.5195 80.9131 62.5007L80.8333 62.5H40.3333L40.2535 62.5007C39.2758 62.5195 38.3226 62.1937 37.5609 61.5805C36.7991 60.9673 36.2773 60.1057 36.0868 59.1466ZM29.1669 80.8333C29.1669 76.231 32.8978 72.5 37.5002 72.5C42.1026 72.5 45.8335 76.231 45.8335 80.8333C45.8335 85.4357 42.1026 89.1667 37.5002 89.1667C32.8978 89.1667 29.1669 85.4357 29.1669 80.8333ZM75 80.8333C75 76.231 78.731 72.5 83.3333 72.5C87.9357 72.5 91.6667 76.231 91.6667 80.8333C91.6667 85.4357 87.9357 89.1667 83.3333 89.1667C78.731 89.1667 75 85.4357 75 80.8333Z" fill="#C8C8C8"/>
</svg>
