<svg width="70" height="70" viewBox="0 0 70 70" fill="none" xmlns="http://www.w3.org/2000/svg">
<g filter="url(#filter0_d)">
<circle cx="35" cy="35" r="25" fill="white"/>
</g>
<path fill-rule="evenodd" clip-rule="evenodd" d="M43.6695 26.3304C43.7742 26.4349 43.8573 26.5591 43.914 26.6957C43.9707 26.8324 43.9999 26.9788 43.9999 27.1268C43.9999 27.2747 43.9707 27.4212 43.914 27.5579C43.8573 27.6945 43.7742 27.8187 43.6695 27.9231L27.9228 43.6701C27.7116 43.8813 27.4251 44 27.1264 44C26.8277 44 26.5413 43.8813 26.3301 43.6701C26.1189 43.4589 26.0002 43.1725 26.0002 42.8738C26.0002 42.5751 26.1189 42.2887 26.3301 42.0774L42.0768 26.3304C42.1813 26.2257 42.3054 26.1426 42.4421 26.0859C42.5787 26.0292 42.7252 26 42.8732 26C43.0211 26 43.1676 26.0292 43.3042 26.0859C43.4409 26.1426 43.565 26.2257 43.6695 26.3304Z" fill="black"/>
<path fill-rule="evenodd" clip-rule="evenodd" d="M26.3304 26.3304C26.2257 26.4349 26.1426 26.5591 26.0859 26.6957C26.0292 26.8324 26 26.9788 26 27.1268C26 27.2747 26.0292 27.4212 26.0859 27.5579C26.1426 27.6945 26.2257 27.8187 26.3304 27.9231L42.0772 43.6701C42.2884 43.8813 42.5748 44 42.8735 44C43.1722 44 43.4586 43.8813 43.6698 43.6701C43.881 43.4589 43.9997 43.1725 43.9997 42.8738C43.9997 42.5751 43.881 42.2887 43.6698 42.0774L27.9231 26.3304C27.8186 26.2257 27.6945 26.1426 27.5579 26.0859C27.4212 26.0292 27.2747 26 27.1268 26C26.9788 26 26.8323 26.0292 26.6957 26.0859C26.559 26.1426 26.4349 26.2257 26.3304 26.3304Z" fill="black"/>
<defs>
<filter id="filter0_d" x="0" y="0" width="70" height="70" filterUnits="userSpaceOnUse" color-interpolation-filters="sRGB">
<feFlood flood-opacity="0" result="BackgroundImageFix"/>
<feColorMatrix in="SourceAlpha" type="matrix" values="0 0 0 0 0 0 0 0 0 0 0 0 0 0 0 0 0 0 127 0"/>
<feOffset/>
<feGaussianBlur stdDeviation="5"/>
<feColorMatrix type="matrix" values="0 0 0 0 0 0 0 0 0 0 0 0 0 0 0 0 0 0 0.15 0"/>
<feBlend mode="normal" in2="BackgroundImageFix" result="effect1_dropShadow"/>
<feBlend mode="normal" in="SourceGraphic" in2="effect1_dropShadow" result="shape"/>
</filter>
</defs>
</svg>
