<svg width="22" height="22" viewBox="0 0 22 22" fill="none" xmlns="http://www.w3.org/2000/svg">
<path d="M4.59782 19.6027C4.50349 19.534 4.41642 19.4727 4.33145 19.4085C2.87973 18.3105 1.7612 16.9437 0.991521 15.2993C0.603658 14.4693 0.326424 13.5926 0.166848 12.6912C0.0467774 12.0355 -0.00873028 11.3697 0.00111211 10.7032C0.052857 7.99878 0.978155 5.62787 2.79648 3.61538C4.28773 1.96491 6.13069 0.878649 8.29252 0.329063C8.78667 0.203389 9.28732 0.106381 9.79618 0.0668938C10.233 0.0327227 10.6722 -0.00619442 11.1097 0.000829659C13.7777 0.0439233 16.143 0.909213 18.1827 2.62575C19.4715 3.7103 20.4478 5.03045 21.1197 6.57119C21.4733 7.3825 21.7226 8.23489 21.8617 9.10821C21.9647 9.7307 22.0103 10.3612 21.998 10.992C21.9376 13.5369 21.0856 15.7869 19.4421 17.7421C19.4272 17.7611 19.4108 17.7769 19.3848 17.805C19.3241 17.7414 19.258 17.6884 19.213 17.6214C19.0476 17.3803 18.879 17.1417 18.7309 16.8901C18.1813 15.9564 17.7562 14.9556 17.4661 13.9129C17.3133 13.3623 17.201 12.8027 17.1527 12.2324C17.1336 12.0059 17.127 11.7783 17.1109 11.5513C17.0943 11.3153 17.165 11.1021 17.2749 10.8984C17.4659 10.5428 17.7152 10.2267 17.9835 9.92718C18.3992 9.46283 18.8248 9.0074 19.2437 8.54552C19.4994 8.26342 19.7478 7.97505 19.9454 7.64796C20.0699 7.44179 20.1509 7.22082 20.1711 6.98029C20.1831 6.84954 20.1619 6.71789 20.1095 6.59738C19.9674 6.27048 19.6247 6.16075 19.3127 6.33901C19.1484 6.43393 19.0364 6.57498 18.9373 6.73179C18.7763 6.98637 18.626 7.25005 18.4408 7.48697C18.1653 7.84046 17.7996 8.10168 17.4391 8.36346C17.1997 8.53717 16.9448 8.68847 16.6607 8.77864C16.5516 8.81083 16.4384 8.82751 16.3246 8.82819C16.1944 8.83085 16.1113 8.74068 16.0942 8.61064C16.0781 8.48246 16.1007 8.35243 16.1591 8.23703C16.288 7.97296 16.423 7.71155 16.5601 7.45128C16.6813 7.22006 16.811 6.99339 16.9307 6.76141C17.0093 6.60953 17.0489 6.44418 17.0204 6.27257C16.9776 6.01647 16.7733 5.83803 16.4923 5.79645C16.1373 5.74462 15.8118 5.83081 15.52 6.02578C14.9541 6.40394 14.592 6.93093 14.4242 7.58683C14.3721 7.79053 14.4209 7.99005 14.4889 8.18596C14.5459 8.34119 14.5935 8.49967 14.6314 8.66056C14.6846 8.90641 14.6277 9.12852 14.4551 9.32064C14.2365 9.5642 13.969 9.73829 13.6776 9.87991C13.0867 10.1669 12.4623 10.2677 11.8087 10.2155C11.506 10.1914 11.2068 10.1573 10.9193 10.054C10.5166 9.90933 10.2462 9.63938 10.1093 9.23236C9.91437 8.65297 9.72476 8.07111 9.46661 7.51526C9.3194 7.1988 9.17333 6.87949 8.91288 6.6344C8.77426 6.50417 8.62418 6.38628 8.4825 6.25928C8.36794 6.1562 8.25166 6.0533 8.14588 5.9413C7.9473 5.73077 7.91255 5.48397 8.00267 5.21421C8.09814 4.9266 8.2633 4.67715 8.44183 4.43587C8.62571 4.18661 8.79775 3.9307 8.90276 3.63702C8.96482 3.46351 9.00434 3.28563 8.96749 3.10015C8.91327 2.83438 8.72099 2.67264 8.44947 2.64872C8.17795 2.6248 7.92305 2.68668 7.68055 2.80059C7.27526 2.99069 6.92203 3.27513 6.65081 3.62981C6.35447 4.01328 6.26893 4.4484 6.35772 4.92072C6.3812 5.04639 6.40641 5.17188 6.43677 5.29603C6.5057 5.57927 6.44555 5.8348 6.26129 6.05539C6.13069 6.2122 5.98424 6.35591 5.84466 6.50531C5.74231 6.61466 5.63271 6.71793 5.53915 6.83373C5.31117 7.11223 5.20768 7.44407 5.14753 7.79091C5.07116 8.22621 5.04042 8.66588 5.03297 9.10688C5.01974 9.81373 4.89739 10.5144 4.67018 11.1843C4.51357 11.6458 4.44335 12.132 4.46301 12.6187C4.48039 13.0502 4.57567 13.4675 4.69214 13.8812C4.81872 14.34 4.90949 14.8079 4.96366 15.2807C5.04012 15.9142 5.067 16.5527 5.04404 17.1904C5.01919 17.811 4.93136 18.4275 4.78188 19.0306C4.7437 19.1887 4.69558 19.3451 4.64956 19.5016C4.63982 19.534 4.61844 19.5634 4.59782 19.6027Z" fill="#BDC0C2"/>
<path d="M9.43843 16.4131C9.43843 15.8296 9.43156 15.2458 9.44053 14.6622C9.44817 14.1717 9.47184 13.6813 9.55166 13.1959C9.60168 12.8922 9.67214 12.5922 9.80637 12.3113C10.0011 11.9042 10.3127 11.6468 10.7731 11.6267C11.5592 11.5937 12.2882 11.7759 12.9067 12.2835C13.2574 12.5717 13.4579 12.9615 13.5631 13.3935C13.6437 13.7239 13.6956 14.0616 13.7518 14.3974C13.8121 14.757 13.8627 15.1188 13.9171 15.4795C13.9729 15.8493 14.0298 16.2199 14.0827 16.5891C14.1356 16.9583 14.1881 17.3346 14.2354 17.7082C14.2753 18.0254 14.3118 18.343 14.3408 18.6614C14.3733 19.0201 14.4 19.3792 14.421 19.7389C14.4376 20.0279 14.4334 20.3172 14.3828 20.604C14.3489 20.7996 14.2234 20.9319 14.0773 21.0534C13.8318 21.259 13.54 21.3457 13.2311 21.4034C12.7178 21.4995 12.2027 21.5787 11.6806 21.6024C11.3998 21.6151 11.1183 21.6214 10.8371 21.6214C10.5774 21.6214 10.3607 21.4999 10.1558 21.3569C9.95512 21.2166 9.85029 21.009 9.77028 20.7874C9.64885 20.4535 9.59061 20.1057 9.5507 19.7545C9.43977 18.7791 9.45275 17.7991 9.44225 16.8198C9.44072 16.6846 9.44225 16.5494 9.44225 16.4141L9.43843 16.4131Z" fill="#BDC0C2"/>
<path d="M15.7073 17.2714C15.7048 16.9508 15.7168 16.6309 15.797 16.3186C15.8208 16.227 15.8561 16.1387 15.902 16.0559C15.9732 15.9277 16.096 15.8799 16.2318 15.9393C16.3384 15.9854 16.4366 16.0486 16.5226 16.1265C16.8004 16.3833 16.9929 16.7043 17.1718 17.0318C17.4391 17.5197 17.661 18.0273 17.813 18.5638C17.8804 18.8015 17.897 19.0346 17.7881 19.2638C17.769 19.305 17.7429 19.3513 17.7068 19.3758C17.3429 19.6226 16.9778 19.8694 16.6093 20.1103C16.4546 20.2111 16.2933 20.161 16.2083 19.9981C16.0427 19.6791 15.9547 19.3348 15.8825 18.9864C15.7741 18.4585 15.7036 17.829 15.7073 17.2714Z" fill="#BDC0C2"/>
<path d="M7.75571 19.5197C7.73872 20.0322 7.74998 20.3844 7.65146 20.7255C7.62301 20.8239 7.56859 20.9154 7.52334 21.0084C7.50424 21.0479 7.47102 21.0559 7.42787 21.0395C7.25411 20.974 7.07864 20.9131 6.90583 20.8449C6.87296 20.8287 6.84653 20.802 6.83079 20.769C6.71012 20.5243 6.64768 20.2616 6.60167 19.995C6.48099 19.3004 6.45789 18.5991 6.47564 17.8969C6.48901 17.364 6.52185 16.831 6.64539 16.3097C6.68224 16.154 6.74086 16.0027 6.80005 15.8541C6.8327 15.7728 6.88827 15.6917 6.9887 15.6889C7.08914 15.6861 7.14145 15.7688 7.18537 15.8451C7.30681 16.0524 7.366 16.2818 7.41927 16.5136C7.5263 16.9799 7.59956 17.4532 7.63847 17.93C7.68716 18.5122 7.72497 19.0963 7.75571 19.5197Z" fill="#BDC0C2"/>
</svg>
