<svg width="20" height="15" viewBox="0 0 20 15" fill="none" xmlns="http://www.w3.org/2000/svg">
<path fill-rule="evenodd" clip-rule="evenodd" d="M0 1.25C0 0.559644 0.447715 0 1 0H19C19.5523 0 20 0.559644 20 1.25C20 1.94036 19.5523 2.5 19 2.5H1C0.447715 2.5 0 1.94036 0 1.25ZM0 13.25C0 12.5596 0.447715 12 1 12H19C19.5523 12 20 12.5596 20 13.25C20 13.9404 19.5523 14.5 19 14.5H1C0.447715 14.5 0 13.9404 0 13.25ZM1 6C0.447715 6 0 6.55964 0 7.25C0 7.94036 0.447715 8.5 1 8.5H13C13.5523 8.5 14 7.94036 14 7.25C14 6.55964 13.5523 6 13 6H1Z" fill="black"/>
</svg>
