<svg width="21" height="22" viewBox="0 0 21 22" fill="none" xmlns="http://www.w3.org/2000/svg">
<path d="M20 10.3168H19.0792V5.90271C19.0792 4.84447 18.253 3.98355 17.2375 3.98355H15.9903L14.714 1.59228C14.5195 1.22683 14.1493 1 13.7478 1C13.5607 1 13.3751 1.05029 13.2111 1.14507L8.31298 3.98349H2.84168C1.82616 3.98349 1 4.84441 1 5.90265V19.0808C1 20.1391 1.82616 21 2.84168 21H17.2375C18.253 21 19.0792 20.1391 19.0792 19.0808V15.2106H20V10.3168ZM17.2375 4.75118C17.8047 4.75118 18.2681 5.20024 18.3303 5.77484H16.9461L16.4002 4.75118H17.2375ZM13.5695 1.816C13.7423 1.71507 13.9747 1.78566 14.0701 1.96495L16.1033 5.77448H6.73797L13.5695 1.816ZM18.3425 19.0808C18.3425 19.7157 17.8466 20.2324 17.2374 20.2324H2.84168C2.23245 20.2324 1.73664 19.7157 1.73664 19.0808V5.90271C1.73664 5.26785 2.23245 4.75118 2.84168 4.75118H6.98843L5.22188 5.7749H3.07191C2.86822 5.7749 2.70356 5.94685 2.70356 6.15875C2.70356 6.37064 2.86822 6.54259 3.07191 6.54259H3.89698H17.3557H18.3425V10.3172H15.6488C14.3979 10.3172 13.3799 11.3781 13.3799 12.6816V12.8467C13.3799 14.1502 14.398 15.2111 15.6488 15.2111H18.3425V19.0808ZM19.2633 14.443H19.0792H15.6488C14.8039 14.443 14.1165 13.7268 14.1165 12.8462V12.6812C14.1165 11.8007 14.8038 11.0844 15.6488 11.0844H19.0792H19.2633V14.443ZM16.777 12.7952C16.777 13.2635 16.4131 13.6427 15.9638 13.6427C15.5144 13.6427 15.1505 13.2635 15.1505 12.7952C15.1505 12.327 15.5144 11.9478 15.9638 11.9478C16.4131 11.9477 16.777 12.3273 16.777 12.7952Z" fill="#BDC0C2" stroke="#BDC0C2" stroke-width="0.3"/>
</svg>
