<svg width="6" height="11" viewBox="0 0 6 11" fill="none" xmlns="http://www.w3.org/2000/svg">
<path d="M0.266469 0.276246C0.181999 0.363243 0.114984 0.46658 0.0692601 0.58034C0.0235359 0.6941 0 0.81605 0 0.939209C0 1.06237 0.0235359 1.18432 0.0692601 1.29808C0.114984 1.41184 0.181999 1.51517 0.266469 1.60217L3.80184 5.25082L0.266469 8.89947C0.0960988 9.0753 0.000385821 9.31377 0.000385821 9.56243C0.000385821 9.81109 0.0960988 10.0496 0.266469 10.2254C0.436838 10.4012 0.667909 10.5 0.908848 10.5C1.14979 10.5 1.38086 10.4012 1.55123 10.2254L5.73353 5.90908C5.818 5.82208 5.88502 5.71875 5.93074 5.60499C5.97646 5.49123 6 5.36928 6 5.24612C6 5.12296 5.97646 5.00101 5.93074 4.88725C5.88502 4.77349 5.818 4.67015 5.73353 4.58315L1.55123 0.266842C1.20498 -0.0904996 0.621828 -0.0904993 0.266469 0.276246Z" fill="black"/>
</svg>
