<svg width="26" height="15" viewBox="0 0 26 15" fill="none" xmlns="http://www.w3.org/2000/svg">
<path fill-rule="evenodd" clip-rule="evenodd" d="M0 9.06091C0 5.7861 2.66427 3.12183 5.93909 3.12183C9.2139 3.12183 11.8782 5.7861 11.8782 9.06091C11.8782 12.3357 9.2139 15 5.93909 15C2.66427 15 0 12.3357 0 9.06091ZM1.18782 9.06091C1.18782 11.6806 3.31936 13.8122 5.93909 13.8122C8.55882 13.8122 10.6904 11.6806 10.6904 9.06091C10.6904 6.44118 8.55882 4.30964 5.93909 4.30964C3.31936 4.30964 1.18782 6.44118 1.18782 9.06091ZM5.34518 9.30679V6.09137H6.53299V8.81503L8.1407 10.4227L7.30092 11.2625L5.34518 9.30679Z" fill="#BDC0C2"/>
<path fill-rule="evenodd" clip-rule="evenodd" d="M6.3548 0.375H24.5284C25.0859 0.375 25.538 0.823807 25.538 1.37722V11.3994C25.538 11.9528 25.0859 12.4016 24.5284 12.4016H11.5544C12.1372 11.4241 12.472 10.2816 12.472 9.06091C12.472 6.36151 10.8348 4.04449 8.49924 3.04865C8.73817 2.71937 8.87891 2.31519 8.87891 1.87833H6.85962V2.59228C6.55885 2.54986 6.2515 2.52792 5.93902 2.52792C5.73884 2.52792 5.54075 2.53692 5.34515 2.55455V1.37722C5.34515 0.823807 5.79729 0.375 6.3548 0.375ZM12.9175 6.38832C12.9175 8.04857 14.0473 9.39499 15.4416 9.39499C16.8352 9.39499 17.9657 8.04919 17.9657 6.38832C17.9657 4.72777 16.8355 3.38166 15.4416 3.38166C14.0477 3.38166 12.9175 4.72777 12.9175 6.38832ZM22.0043 10.8983H24.0236V8.89388C22.9082 8.89388 22.0043 9.79118 22.0043 10.8983ZM22.0043 1.87833C22.0043 2.98547 22.9082 3.88277 24.0236 3.88277V1.87833H22.0043Z" fill="#BDC0C2"/>
</svg>
