<svg width="21" height="23" viewBox="0 0 21 23" fill="none" xmlns="http://www.w3.org/2000/svg">
<path d="M2.22256 20.0031C2.22256 21.2288 3.21938 22.2256 4.44512 22.2256H15.5579C16.7837 22.2256 17.7805 21.2288 17.7805 20.0031V6.66768H20.0031V4.44512H15.5579V2.22256C15.5579 0.996819 14.5611 0 13.3354 0H6.66768C5.44194 0 4.44512 0.996819 4.44512 2.22256V4.44512H0V6.66768H2.22256V20.0031ZM6.66768 2.22256H13.3354V4.44512H6.66768V2.22256ZM5.5564 6.66768H15.5579L15.559 20.0031H4.44512V6.66768H5.5564Z" fill="black"/>
<path d="M6.66772 8.89024H8.89029V17.7805H6.66772V8.89024ZM11.1128 8.89024H13.3354V17.7805H11.1128V8.89024Z" fill="black"/>
</svg>
