<svg width="19" height="15" viewBox="0 0 19 15" fill="none" xmlns="http://www.w3.org/2000/svg">
<path d="M18.9457 7.25024L16.91 2.46686C16.8581 2.34335 16.7712 2.23796 16.6601 2.16384C16.5491 2.08971 16.4189 2.05013 16.2857 2.05002H14.25V0.68334C14.25 0.502107 14.1785 0.328297 14.0513 0.200146C13.924 0.0719947 13.7514 0 13.5714 0H0.678571C0.498603 0 0.326006 0.0719947 0.198749 0.200146C0.0714921 0.328297 0 0.502107 0 0.68334V12.3001C0 12.4814 0.0714921 12.6552 0.198749 12.7833C0.326006 12.9115 0.498603 12.9835 0.678571 12.9835H2.13071C2.28698 13.5625 2.62811 14.0737 3.10148 14.4381C3.57484 14.8025 4.15414 15 4.75 15C5.34586 15 5.92516 14.8025 6.39852 14.4381C6.87189 14.0737 7.21302 13.5625 7.36929 12.9835H11.6307C11.787 13.5625 12.1281 14.0737 12.6015 14.4381C13.0748 14.8025 13.6541 15 14.25 15C14.8459 15 15.4252 14.8025 15.8985 14.4381C16.3719 14.0737 16.713 13.5625 16.8693 12.9835H18.3214C18.5014 12.9835 18.674 12.9115 18.8013 12.7833C18.9285 12.6552 19 12.4814 19 12.3001V7.51674C18.9998 7.42514 18.9814 7.33451 18.9457 7.25024ZM14.25 3.4167H15.8379L17.29 6.8334H14.25V3.4167ZM4.75 13.6668C4.48158 13.6668 4.21919 13.5866 3.99601 13.4365C3.77283 13.2863 3.59888 13.0729 3.49616 12.8231C3.39344 12.5734 3.36657 12.2986 3.41893 12.0335C3.4713 11.7684 3.60055 11.5249 3.79035 11.3337C3.98015 11.1426 4.22197 11.0124 4.48523 10.9597C4.74849 10.907 5.02137 10.934 5.26936 11.0375C5.51734 11.1409 5.7293 11.3161 5.87842 11.5408C6.02755 11.7656 6.10714 12.0298 6.10714 12.3001C6.10714 12.6626 5.96416 13.0102 5.70964 13.2665C5.45513 13.5228 5.10994 13.6668 4.75 13.6668ZM11.6307 11.6168H7.36929C7.21302 11.0377 6.87189 10.5266 6.39852 10.1621C5.92516 9.7977 5.34586 9.60025 4.75 9.60025C4.15414 9.60025 3.57484 9.7977 3.10148 10.1621C2.62811 10.5266 2.28698 11.0377 2.13071 11.6168H1.35714V1.36668H12.8929V9.94943C12.5839 10.13 12.3133 10.3703 12.0967 10.6564C11.8801 10.9425 11.7218 11.2689 11.6307 11.6168ZM14.25 13.6668C13.9816 13.6668 13.7192 13.5866 13.496 13.4365C13.2728 13.2863 13.0989 13.0729 12.9962 12.8231C12.8934 12.5734 12.8666 12.2986 12.9189 12.0335C12.9713 11.7684 13.1006 11.5249 13.2904 11.3337C13.4802 11.1426 13.722 11.0124 13.9852 10.9597C14.2485 10.907 14.5214 10.934 14.7694 11.0375C15.0173 11.1409 15.2293 11.3161 15.3784 11.5408C15.5275 11.7656 15.6071 12.0298 15.6071 12.3001C15.6071 12.6626 15.4642 13.0102 15.2096 13.2665C14.9551 13.5228 14.6099 13.6668 14.25 13.6668ZM17.6429 11.6168H16.8693C16.7192 11.0315 16.3808 10.5129 15.9068 10.1419C15.4329 9.77099 14.8502 9.56872 14.25 9.56676V8.20008H17.6429V11.6168Z" fill="black"/>
</svg>
