<svg width="21" height="8" viewBox="0 0 21 8" fill="none" xmlns="http://www.w3.org/2000/svg">
<path d="M0 4.875H2.94687C3.30625 6.52812 4.74375 7.75 6.46875 7.75C8.19375 7.75 9.63125 6.52812 9.99062 4.875H20.125V3.4375H9.99062C9.63125 1.78438 8.19375 0.5625 6.46875 0.5625C4.74375 0.5625 3.30625 1.78438 2.94687 3.4375H0V4.875ZM6.46875 2C7.69063 2 8.625 2.93438 8.625 4.15625C8.625 5.37813 7.69063 6.3125 6.46875 6.3125C5.24687 6.3125 4.3125 5.37813 4.3125 4.15625C4.3125 2.93438 5.24687 2 6.46875 2Z" fill="black"/>
</svg>
