<svg width="21" height="8" viewBox="0 0 21 8" fill="none" xmlns="http://www.w3.org/2000/svg">
<path d="M20.125 3.375H17.1781C16.8188 1.72188 15.3813 0.5 13.6562 0.5C11.9312 0.5 10.4938 1.72188 10.1344 3.375H0V4.8125H10.1344C10.4938 6.46562 11.9312 7.6875 13.6562 7.6875C15.3813 7.6875 16.8188 6.46562 17.1781 4.8125H20.125V3.375ZM13.6562 6.25C12.4344 6.25 11.5 5.31563 11.5 4.09375C11.5 2.87188 12.4344 1.9375 13.6562 1.9375C14.8781 1.9375 15.8125 2.87188 15.8125 4.09375C15.8125 5.31563 14.8781 6.25 13.6562 6.25Z" fill="black"/>
</svg>
