<svg width="375" height="70" viewBox="0 0 375 70" fill="none" xmlns="http://www.w3.org/2000/svg">
<g filter="url(#filter0_d)">
<path d="M7.21154 46L0 53V6H375V53L367.788 46L360.577 53L353.365 46L346.154 53L338.942 46L331.731 53L324.519 46L317.308 53L310.096 46L302.885 53L295.673 46L288.462 53L281.25 46L274.038 53L266.827 46L259.615 53L252.404 46L245.192 53L237.981 46L230.769 53L223.558 46L216.346 53L209.135 46L201.923 53L194.712 46L187.5 53L180.288 46L173.077 53L165.865 46L158.654 53L151.442 46L144.231 53L137.019 46L129.808 53L122.596 46L115.385 53L108.173 46L100.962 53L93.75 46L86.5385 53L79.3269 46L72.1154 53L64.9038 46L57.6923 53L50.4808 46L43.2692 53L36.0577 46L28.8462 53L21.6346 46L14.4231 53L7.21154 46Z" fill="white"/>
<path d="M7.21154 46L0 53V6H375V53L367.788 46L360.577 53L353.365 46L346.154 53L338.942 46L331.731 53L324.519 46L317.308 53L310.096 46L302.885 53L295.673 46L288.462 53L281.25 46L274.038 53L266.827 46L259.615 53L252.404 46L245.192 53L237.981 46L230.769 53L223.558 46L216.346 53L209.135 46L201.923 53L194.712 46L187.5 53L180.288 46L173.077 53L165.865 46L158.654 53L151.442 46L144.231 53L137.019 46L129.808 53L122.596 46L115.385 53L108.173 46L100.962 53L93.75 46L86.5385 53L79.3269 46L72.1154 53L64.9038 46L57.6923 53L50.4808 46L43.2692 53L36.0577 46L28.8462 53L21.6346 46L14.4231 53L7.21154 46Z" stroke="white"/>
</g>
<defs>
<filter id="filter0_d" x="-10.5" y="0.5" width="396" height="68.6821" filterUnits="userSpaceOnUse" color-interpolation-filters="sRGB">
<feFlood flood-opacity="0" result="BackgroundImageFix"/>
<feColorMatrix in="SourceAlpha" type="matrix" values="0 0 0 0 0 0 0 0 0 0 0 0 0 0 0 0 0 0 127 0"/>
<feOffset dy="5"/>
<feGaussianBlur stdDeviation="5"/>
<feColorMatrix type="matrix" values="0 0 0 0 0 0 0 0 0 0 0 0 0 0 0 0 0 0 0.05 0"/>
<feBlend mode="normal" in2="BackgroundImageFix" result="effect1_dropShadow"/>
<feBlend mode="normal" in="SourceGraphic" in2="effect1_dropShadow" result="shape"/>
</filter>
</defs>
</svg>
